<svg width="23" height="22" viewBox="0 0 23 22" fill="none" xmlns="http://www.w3.org/2000/svg">
<path fill-rule="evenodd" clip-rule="evenodd" d="M9.60832 2.85373C5.89374 2.85373 2.88248 5.83496 2.88248 9.51248C2.88248 13.19 5.89374 16.1712 9.60832 16.1712C11.4659 16.1712 13.146 15.427 14.3642 14.2209C15.5824 13.0149 16.3341 11.3515 16.3341 9.51248C16.3341 5.83496 13.3229 2.85373 9.60832 2.85373ZM0.960815 9.51248C0.960815 4.78424 4.83244 0.951233 9.60832 0.951233C14.3842 0.951233 18.2558 4.78424 18.2558 9.51248C18.2558 11.5335 17.5475 13.3921 16.3648 14.8562L21.8177 20.2549C22.1929 20.6263 22.1929 21.2286 21.8177 21.6001C21.4425 21.9716 20.8341 21.9716 20.4589 21.6001L15.0059 16.2016C13.527 17.3725 11.6497 18.0737 9.60832 18.0737C4.83244 18.0737 0.960815 14.2408 0.960815 9.51248ZM9.60832 6.65873C10.139 6.65873 10.5691 7.08463 10.5691 7.60998V8.56123H11.53C12.0606 8.56123 12.4908 8.98713 12.4908 9.51248C12.4908 10.0379 12.0606 10.4637 11.53 10.4637H10.5691V11.415C10.5691 11.9404 10.139 12.3662 9.60832 12.3662C9.07767 12.3662 8.64748 11.9404 8.64748 11.415V10.4637H7.68665C7.156 10.4637 6.72582 10.0379 6.72582 9.51248C6.72582 8.98713 7.156 8.56123 7.68665 8.56123H8.64748V7.60998C8.64748 7.08463 9.07767 6.65873 9.60832 6.65873Z" fill="#293644"/>
</svg>
